#!OML:ASF F:\VICON\USERDATA\INSTALL\rory3\rory3.ASF
:FULLY-SPECIFIED
:DEGREES
861
root 4.58259 17.3531 2.44 5.56975 -12.5544 -4.90717
lowerback 11.7192 0.223787 4.60414
upperback 4.58341 0.802292 1.16874
thorax -1.72404 0.417893 -1.48014
lowerneck -11.9036 -0.253125 -2.521
upperneck 35.8682 0.409973 -0.670691
head 14.2721 -0.304366 0.224056
rclavicle -2.75565e-014 3.02153e-014
rhumerus -31.9769 -3.22011 -17.7335
rradius 35.0306
rwrist 10.7695
rhand -21.6227 -44.1897
rfingers 7.12502
rthumb 4.77308 -74.1159
lclavicle -2.75565e-014 3.02153e-014
lhumerus -29.5277 2.30569 11.2162
lradius 29.1847
lwrist 10.9455
lhand -24.8576 -30.959
lfingers 7.12502
lthumb 1.64912 -0.985597
rfemur -99.1982 2.68721 27.7509
rtibia 98.5597
rfoot 47.6939 3.79105
rtoes -6.85824
lfemur -18.723 0.226123 -24.3635
ltibia 30.6153
lfoot -14.0005 9.99229
ltoes 10.9068
862
root 4.58177 17.3527 2.43882 5.56681 -12.5461 -4.9807
lowerback 11.7879 0.184643 4.59126
upperback 4.5691 0.754447 1.193
thorax -1.77976 0.39242 -1.44239
lowerneck -11.877 -0.173365 -2.4026
upperneck 35.7643 0.542 -0.807863
head 14.2174 -0.249016 0.167534
rclavicle -3.31101e-015 1.16538e-014
rhumerus -31.9494 -2.99592 -17.8869
rradius 35.2425
rwrist 10.3677
rhand -21.064 -44.8833
rfingers 7.12502
rthumb 5.3126 -74.7967
lclavicle -3.31101e-015 1.16538e-014
lhumerus -29.683 2.36832 11.1514
lradius 29.2369
lwrist 10.9009
lhand -24.9064 -30.4691
lfingers 7.12502
lthumb 1.60199 -0.495391
rfemur -99.1121 2.71829 27.7799
rtibia 98.5076
rfoot 47.6007 3.3716
rtoes -6.16928
lfemur -18.7109 0.195703 -24.2777
ltibia 30.6315
lfoot -13.9602 10.0095
ltoes 10.7016
863
root 4.58119 17.3504 2.43983 5.53711 -12.5848 -4.99523
lowerback 11.8154 0.186197 4.5485
upperback 4.59097 0.752646 1.20453
thorax -1.77288 0.39141 -1.40631
lowerneck -11.8826 -0.150799 -2.40509
upperneck 35.6991 0.598703 -0.871599
head 14.1888 -0.232619 0.150893
rclavicle -1.46914e-014 3.926e-015
rhumerus -31.9293 -2.87538 -17.9525
rradius 35.3929
rwrist 10.1536
rhand -20.3369 -45.8152
rfingers 7.12502
rthumb 6.0146 -75.7099
lclavicle -1.46914e-014 3.926e-015
lhumerus -29.7813 2.20594 11.2487
lradius 29.2014
lwrist 10.8206
lhand -25.0536 -30.4415
lfingers 7.12502
lthumb 1.45981 -0.466734
rfemur -99.0575 2.77574 27.7537
rtibia 98.4842
rfoot 47.6167 3.32132
rtoes -5.43507
lfemur -18.706 0.200228 -24.265
ltibia 30.7121
lfoot -14.0372 10.0547
ltoes 10.7809
864
root 4.58116 17.3484 2.43495 5.5871 -12.6653 -5.00227
lowerback 11.8388 0.236176 4.50761
upperback 4.54905 0.817337 1.21445
thorax -1.82668 0.421513 -1.38196
lowerneck -11.8609 -0.183324 -2.48289
upperneck 35.6934 0.551521 -0.815359
head 14.1814 -0.255446 0.180431
rclavicle -3.08551e-014 -2.00151e-014
rhumerus -31.9874 -2.80708 -17.9401
rradius 35.4532
rwrist 10.0282
rhand -19.9457 -46.3686
rfingers 7.12502
rthumb 6.39222 -76.2522
lclavicle -3.08551e-014 -2.00151e-014
lhumerus -29.7498 2.07957 11.334
lradius 29.1099
lwrist 10.6934
lhand -24.8405 -31.9385
lfingers 7.12502
lthumb 1.66557 -1.96529
rfemur -99.0968 2.8768 27.735
rtibia 98.4099
rfoot 47.632 3.55136
rtoes -5.65522
lfemur -18.8346 0.242474 -24.2506
ltibia 30.815
lfoot -14.1262 10.0748
ltoes 10.9483
865
root 4.58274 17.3468 2.42302 5.69452 -12.6664 -5.07063
lowerback 11.9625 0.244346 4.53561
upperback 4.41754 0.844712 1.24058
thorax -2.02976 0.429416 -1.37641
lowerneck -11.7518 -0.219466 -2.51631
upperneck 35.6783 0.487443 -0.773914
head 14.1501 -0.281543 0.193492
rclavicle -1.61078e-014 1.7257e-014
rhumerus -32.0006 -2.82244 -17.8888
rradius 35.293
rwrist 10.1502
rhand -19.9629 -46.2599
rfingers 7.12502
rthumb 6.37566 -76.144
lclavicle -1.61078e-014 1.7257e-014
lhumerus -29.6856 2.19903 11.243
lradius 29.127
lwrist 10.7335
lhand -24.4888 -32.6492
lfingers 7.12502
lthumb 2.00532 -2.67889
rfemur -99.1745 2.93271 27.7644
rtibia 98.2947
rfoot 47.5487 3.59194
rtoes -6.24708
lfemur -19.0492 0.291852 -24.1634
ltibia 30.9041
lfoot -14.1115 10.0484
ltoes 10.8544
866
root 4.58705 17.3458 2.42098 5.72133 -12.6841 -5.15289
lowerback 12.0116 0.222259 4.61409
upperback 4.37645 0.829481 1.25715
thorax -2.09899 0.420244 -1.40202
lowerneck -11.7992 -0.267022 -2.49034
upperneck 35.7256 0.43348 -0.836999
head 14.1837 -0.310912 0.15479
rclavicle 4.31735e-015 1.30452e-014
rhumerus -31.9024 -2.96047 -17.8524
rradius 35.0588
rwrist 10.4065
rhand -20.2547 -45.7185
rfingers 7.12502
rthumb 6.09397 -75.6109
lclavicle 4.31735e-015 1.30452e-014
lhumerus -29.6743 2.35544 11.1633
lradius 29.1424
lwrist 10.7637
lhand -24.7028 -31.7756
lfingers 7.12502
lthumb 1.79857 -1.80344
rfemur -99.1668 2.95238 27.8138
rtibia 98.26
rfoot 47.5328 3.63192
rtoes -6.21714
lfemur -19.1003 0.401225 -24.0932
ltibia 30.9567
lfoot -14.1093 9.97872
ltoes 10.9133
867
root 4.5905 17.3465 2.42519 5.66714 -12.7171 -5.21081
lowerback 12.0705 0.213926 4.66873
upperback 4.37703 0.828451 1.27154
thorax -2.1296 0.419217 -1.4182
lowerneck -11.8461 -0.292135 -2.50897
upperneck 35.7585 0.406994 -0.848269
head 14.2099 -0.327124 0.14926
rclavicle 2.51587e-014 -1.34677e-014
rhumerus -31.8392 -3.08782 -17.8149
rradius 34.9386
rwrist 10.5629
rhand -20.4878 -45.3656
rfingers 7.12502
rthumb 5.86885 -75.2643
lclavicle 2.51587e-014 -1.34677e-014
lhumerus -29.6765 2.28746 11.2294
lradius 29.1393
lwrist 10.7673
lhand -25.4185 -30.5704
lfingers 7.12502
lthumb 1.10734 -0.593557
rfemur -99.0625 2.96066 27.8564
rtibia 98.2661
rfoot 47.5517 3.63658
rtoes -5.86291
lfemur -19.0227 0.47929 -24.0502
ltibia 30.9881
lfoot -14.1193 9.92316
ltoes 10.9874
868
root 4.59325 17.3462 2.4306 5.57507 -12.699 -5.13589
lowerback 12.1314 0.194698 4.61747
upperback 4.37583 0.800575 1.25866
thorax -2.16638 0.4044 -1.39974
lowerneck -11.8077 -0.229946 -2.4591
upperneck 35.6935 0.511024 -0.925055
head 14.1708 -0.284904 0.125318
rclavicle -5.45415e-015 4.17448e-015
rhumerus -31.8011 -3.19074 -17.7562
rradius 34.8595
rwrist 10.7319
rhand -20.6621 -45.0287
rfingers 7.12502
rthumb 5.70064 -74.932
lclavicle -5.45415e-015 4.17448e-015
lhumerus -29.7008 2.14078 11.3338
lradius 29.1581
lwrist 10.8097
lhand -25.822 -29.5958
lfingers 7.12502
lthumb 0.717675 0.382757
rfemur -98.9823 2.87713 27.7676
rtibia 98.2915
rfoot 47.3849 3.64094
rtoes -6.27604
lfemur -18.9213 0.453271 -24.1454
ltibia 31.0074
lfoot -14.1366 9.94897
ltoes 10.79
869
root 4.59433 17.3454 2.43721 5.57415 -12.7083 -5.15611
lowerback 12.0057 0.191352 4.66636
upperback 4.43222 0.791601 1.25155
thorax -2.03853 0.403673 -1.43168
lowerneck -11.9293 -0.185179 -2.40042
upperneck 35.7001 0.577603 -0.956087
head 14.2009 -0.252951 0.112378
rclavicle -4.26083e-014 -2.48481e-017
rhumerus -31.7404 -3.40805 -17.7234
rradius 34.7619
rwrist 10.9272
rhand -20.8049 -44.6654
rfingers 7.12502
rthumb 5.56268 -74.5724
lclavicle -4.26083e-014 -2.48481e-017
lhumerus -29.6624 2.23666 11.3416
lradius 29.1036
lwrist 10.6663
lhand -25.8139 -29.0627
lfingers 7.12502
lthumb 0.725489 0.915857
rfemur -98.9488 2.86274 27.7775
rtibia 98.294
rfoot 47.1666 3.78109
rtoes -7.07549
lfemur -18.9003 0.502602 -24.1352
ltibia 31.0175
lfoot -14.1985 9.88878
ltoes 10.7334
870
root 4.59426 17.3463 2.43687 5.66191 -12.7189 -5.33464
lowerback 11.9355 0.213262 4.80153
upperback 4.42803 0.832973 1.30152
thorax -2.00043 0.425452 -1.46027
lowerneck -11.9979 -0.219897 -2.43834
upperneck 35.7357 0.508137 -0.867199
head 14.2328 -0.276569 0.144529
rclavicle -9.88954e-015 1.56294e-014
rhumerus -31.7562 -3.45771 -17.7149
rradius 34.7359
rwrist 10.9188
rhand -20.9674 -44.4947
rfingers 7.12502
rthumb 5.40587 -74.4058
lclavicle -9.88954e-015 1.56294e-014
lhumerus -29.5712 2.35851 11.3206
lradius 29.0091
lwrist 10.4104
lhand -25.7871 -28.487
lfingers 7.12502
lthumb 0.75139 1.49139
rfemur -98.9502 2.93291 27.926
rtibia 98.2416
rfoot 47.0771 3.61668
rtoes -7.04385
lfemur -18.9768 0.614869 -23.9395
ltibia 31.0295
lfoot -14.253 9.74615
ltoes 10.7433
871
root 4.59506 17.3465 2.43393 5.67055 -12.7119 -5.30697
lowerback 11.9794 0.234123 4.71418
upperback 4.39162 0.855298 1.31126
thorax -2.06302 0.434153 -1.40485
lowerneck -11.9914 -0.270933 -2.47393
upperneck 35.7416 0.434337 -0.844761
head 14.2346 -0.309956 0.148701
rclavicle -2.4202e-014 -4.78326e-015
rhumerus -31.774 -3.35831 -17.6962
rradius 34.6714
rwrist 10.9202
rhand -21.2908 -44.3837
rfingers 7.12502
rthumb 5.09357 -74.3025
lclavicle -2.4202e-014 -4.78326e-015
lhumerus -29.5055 2.32761 11.3734
lradius 28.8854
lwrist 10.2477
lhand -25.6748 -29.247
lfingers 7.12502
lthumb 0.859854 0.73106
rfemur -99.0182 2.91563 27.8475
rtibia 98.2251
rfoot 47.1659 3.22115
rtoes -6.43794
lfemur -19.0037 0.658084 -23.969
ltibia 31.0347
lfoot -14.289 9.71339
ltoes 10.9272
872
root 4.59492 17.3451 2.43367 5.65547 -12.6908 -5.1885
lowerback 11.9535 0.242746 4.55961
upperback 4.38364 0.847644 1.29065
thorax -2.06049 0.42963 -1.33833
lowerneck -11.984 -0.305591 -2.59038
upperneck 35.7853 0.37275 -0.726532
head 14.2533 -0.336931 0.207894
rclavicle 3.95085e-015 1.55797e-014
rhumerus -31.781 -3.21793 -17.6958
rradius 34.7607
rwrist 10.8811
rhand -21.2285 -44.6376
rfingers 7.12502
rthumb 5.15374 -74.5549
lclavicle 3.95085e-015 1.55797e-014
lhumerus -29.4341 2.2343 11.4644
lradius 28.7023
lwrist 10.1594
lhand -25.3306 -30.8811
lfingers 7.12502
lthumb 1.19224 -0.904705
rfemur -99.0977 2.85419 27.6927
rtibia 98.2545
rfoot 47.2664 3.26561
rtoes -6.38468
lfemur -18.992 0.667723 -24.0985
ltibia 30.9932
lfoot -14.2424 9.69472
ltoes 11.9329
